<svg xmlns="http://www.w3.org/2000/svg" width="851" height="103" viewBox="0 0 851 103">
  <g id="Group_505" data-name="Group 505" transform="translate(-138 -146)">
    <g id="Group_437" data-name="Group 437">
      <circle id="Ellipse_19" data-name="Ellipse 19" cx="50" cy="50" r="50" transform="translate(138 146)" fill="#8b68ff"/>
      <g id="Group_430" data-name="Group 430" transform="translate(-1176.868 -584.057)">
        <path id="Path_337" data-name="Path 337" d="M1354.027,800.059a2.4,2.4,0,0,1-1.7-.706l-13.614-13.613a2.409,2.409,0,0,1,3.407-3.407l11.909,11.91,23.594-23.594a2.409,2.409,0,1,1,3.407,3.407l-25.3,25.3A2.4,2.4,0,0,1,1354.027,800.059Z" transform="translate(5 -5)" fill="#fff"/>
      </g>
    </g>
    <g id="Group_436" data-name="Group 436">
      <g id="Group_431" data-name="Group 431" transform="translate(-18 40)">
        <rect id="Rectangle_6" data-name="Rectangle 6" width="82" height="82" rx="10" transform="translate(601 106)" fill="#8b68ff"/>
        <path id="Path_338" data-name="Path 338" d="M5214.131,708.577c-1.266,8.837-43.708,44.861-36.428,32.252s12.262-22.589,5.064-35.349S5215.4,699.739,5214.131,708.577Z" transform="translate(-4537.332 -537.477)" fill="#8b68ff"/>
      </g>
      <g id="Group_274" data-name="Group 274" transform="translate(-1774.715 -1132)">
        <g id="Group_270" data-name="Group 270" transform="translate(2377.592 1307.483)">
          <path id="Path_218" data-name="Path 218" d="M2379.66,1349.953a2.068,2.068,0,0,1-2.068-2.071l.026-24.177a2.066,2.066,0,0,1,1.537-2l10.959-2.91a2.042,2.042,0,0,1,.947-.027l9.984,2.074c1.7,3.047,4.968,10.015,7.494,10.633,4.557,1.118,8.443-6.615,8.443-6.182v19.677a2.2,2.2,0,0,1-1.622,1.983l-9.893,2.91a2.2,2.2,0,0,1-1.038.043l-13.757-2.812-10.472,2.785A2.126,2.126,0,0,1,2379.66,1349.953Zm10.934-7.046a2.063,2.063,0,0,1,.415.042l13.838,2.807,7.975-2.325v-12.784l-3.833,1.6c-.327.1-6.714-6.882-7.046-6.95l-11.2-2.377-8.97,2.377-.029,19.9,8.327-2.217A2.065,2.065,0,0,1,2390.593,1342.907Z" transform="translate(-2377.592 -1318.729)" fill="#fff"/>
        </g>
        <g id="Group_273" data-name="Group 273" transform="translate(2397.507 1295.294)">
          <g id="Group_271" data-name="Group 271" transform="translate(0)">
            <path id="Path_219" data-name="Path 219" d="M2438.052,1308.368c0,5.024-9.1,15.715-9.1,15.715s-9.1-10.69-9.1-15.715a9.1,9.1,0,0,1,18.2,0Z" transform="translate(-2417.788 -1297.202)" fill="none"/>
            <path id="Path_220" data-name="Path 220" d="M2427.046,1324.242a2.064,2.064,0,0,1-1.574-.728c-1.6-1.882-9.592-11.548-9.592-17.055a11.166,11.166,0,1,1,22.332,0c0,5.507-7.989,15.173-9.591,17.055A2.065,2.065,0,0,1,2427.046,1324.242Zm0-24.813a7.038,7.038,0,0,0-7.03,7.031c0,2.527,3.717,8.227,7.03,12.444,3.313-4.219,7.031-9.92,7.031-12.444A7.039,7.039,0,0,0,2427.046,1299.43Z" transform="translate(-2415.88 -1295.294)" fill="#fff"/>
          </g>
          <g id="Group_272" data-name="Group 272" transform="translate(7.806 7.858)">
            <path id="Path_221" data-name="Path 221" d="M2434.248,1317.121a3.36,3.36,0,1,1,3.36-3.36A3.364,3.364,0,0,1,2434.248,1317.121Zm0-4.135a.776.776,0,1,0,.775.775A.776.776,0,0,0,2434.248,1312.986Z" transform="translate(-2430.888 -1310.401)" fill="#fff"/>
          </g>
        </g>
      </g>
    </g>
    <g id="Group_435" data-name="Group 435" transform="translate(0 -47)">
      <circle id="Ellipse_20" data-name="Ellipse 20" cx="50" cy="50" r="50" transform="translate(889 196)" fill="#8b68ff"/>
      <g id="Group_311" data-name="Group 311" transform="translate(-394.823 -897.256)">
        <path id="Path_247" data-name="Path 247" d="M1316.514,1160.871a1.905,1.905,0,0,1-1.133-.379,2.473,2.473,0,0,1-1.058-2.289v-29.894a2.473,2.473,0,0,1,1.058-2.289,2.88,2.88,0,0,1,2.738-.064l14.327,7.6v-5.246a2.4,2.4,0,0,1,3.585-2.353l27.911,14.947a2.64,2.64,0,0,1,1.382,2.353,2.681,2.681,0,0,1-1.425,2.353l-27.974,14.947a2.264,2.264,0,0,1-2.406-.064,2.482,2.482,0,0,1-1.073-2.289v-5.246l-14.446,7.6A3.629,3.629,0,0,1,1316.514,1160.871Zm18.145-15.034a3.605,3.605,0,0,1,1.615.379,2.924,2.924,0,0,1,1.541,2.289v5.246l19.638-10.495-19.638-10.495v5.246a2.924,2.924,0,0,1-1.541,2.289,2.424,2.424,0,0,1-2.5.064l-14.086-7.6v20.99l13.964-7.6A1.771,1.771,0,0,1,1334.659,1145.837Z" fill="#fff"/>
      </g>
    </g>
  </g>
</svg>
