<svg id="Component_1_7" data-name="Component 1 – 7" xmlns="http://www.w3.org/2000/svg" xmlns:xlink="http://www.w3.org/1999/xlink" width="375" height="52.555" viewBox="0 0 375 52.555">
  <defs>
    <linearGradient id="linear-gradient" x1="0.159" y1="0.225" x2="0.922" y2="0.217" gradientUnits="objectBoundingBox">
      <stop offset="0" stop-color="#8b68ff"/>
      <stop offset="1" stop-color="#d9ceff"/>
    </linearGradient>
    <linearGradient id="linear-gradient-2" x1="0.14" y1="0.796" x2="0.942" y2="0.769" gradientUnits="objectBoundingBox">
      <stop offset="0" stop-color="#d9ceff"/>
      <stop offset="1" stop-color="#8b68ff"/>
    </linearGradient>
    <linearGradient id="linear-gradient-3" x1="0.278" y1="0.803" x2="0.731" y2="0.791" xlink:href="#linear-gradient-2"/>
  </defs>
  <path id="Subtraction_22" data-name="Subtraction 22" d="M122,52.31h0A28.766,28.766,0,0,0,93.336,24H13.781A12.062,12.062,0,0,1,2,12,12.015,12.015,0,0,1,13.853,0H82a39.967,39.967,0,0,1,40,40V52.309Z" transform="translate(122 52.31) rotate(180)" fill="url(#linear-gradient)"/>
  <path id="Union_2" data-name="Union 2" d="M143,52.31a12,12,0,0,1,0-24h88a12,12,0,0,1,0,24Zm-34.987,0H40a39.733,39.733,0,0,1-15.57-3.144A39.967,39.967,0,0,1,0,12.31V0H0A28.766,28.766,0,0,0,28.664,28.309H108.22a12.062,12.062,0,0,1,11.78,12,12.015,12.015,0,0,1-11.852,12H126l-18,0Z" transform="translate(0)" fill="url(#linear-gradient-2)"/>
  <path id="Union_4" data-name="Union 4" d="M266.737,52.555a12.07,12.07,0,0,1-11.735-12,12.015,12.015,0,0,1,11.858-12l-9.926,0,10.066,0h79.336A28.718,28.718,0,0,0,375,0V12.555A40.04,40.04,0,0,1,350.57,49.411,39.731,39.731,0,0,1,335,52.555ZM143,52.555a12,12,0,0,1,0-24h88a12,12,0,0,1,0,24Zm-34.987,0H40a39.733,39.733,0,0,1-15.57-3.144A39.967,39.967,0,0,1,0,12.555V.246H0a28.766,28.766,0,0,0,28.662,28.31H108.22a12.062,12.062,0,0,1,11.78,12,12.015,12.015,0,0,1-11.852,12H126l-18,0Z" transform="translate(0)" fill="url(#linear-gradient-3)"/>
  <circle id="Ellipse_70" data-name="Ellipse 70" cx="8.25" cy="8.25" r="8.25" transform="translate(260 32.31)" fill="#fff"/>
</svg>
