<svg id="Component_1_6" data-name="Component 1 – 6" xmlns="http://www.w3.org/2000/svg" xmlns:xlink="http://www.w3.org/1999/xlink" width="243" height="52.31" viewBox="0 0 243 52.31">
  <defs>
    <linearGradient id="linear-gradient" x1="0.159" y1="0.225" x2="0.922" y2="0.217" gradientUnits="objectBoundingBox">
      <stop offset="0" stop-color="#8b68ff"/>
      <stop offset="1" stop-color="#d9ceff"/>
    </linearGradient>
    <linearGradient id="linear-gradient-2" x1="0.14" y1="0.796" x2="0.942" y2="0.769" gradientUnits="objectBoundingBox">
      <stop offset="0" stop-color="#d9ceff"/>
      <stop offset="1" stop-color="#8b68ff"/>
    </linearGradient>
  </defs>
  <path id="Subtraction_22" data-name="Subtraction 22" d="M122,52.31h0A28.766,28.766,0,0,0,93.336,24H13.781A12.062,12.062,0,0,1,2,12,12.015,12.015,0,0,1,13.853,0H82a39.967,39.967,0,0,1,40,40V52.309Z" transform="translate(122 52.31) rotate(180)" fill="url(#linear-gradient)"/>
  <path id="Union_2" data-name="Union 2" d="M143,52.31a12,12,0,0,1,0-24h88a12,12,0,0,1,0,24Zm-34.987,0H40a39.733,39.733,0,0,1-15.57-3.144A39.967,39.967,0,0,1,0,12.31V0H0A28.766,28.766,0,0,0,28.664,28.309H108.22a12.062,12.062,0,0,1,11.78,12,12.015,12.015,0,0,1-11.852,12H126l-18,0Z" transform="translate(0 0)" fill="url(#linear-gradient-2)"/>
  <circle id="Ellipse_69" data-name="Ellipse 69" cx="8.25" cy="8.25" r="8.25" transform="translate(221 32.31)" fill="#fff"/>
</svg>
