<svg xmlns="http://www.w3.org/2000/svg" width="245.841" height="313.341" viewBox="0 0 245.841 313.341">
  <g id="Layer_2" data-name="Layer 2" transform="translate(0 -0.001)">
    <g id="Layer_1" data-name="Layer 1" transform="translate(0 0.001)">
      <path id="Path_355" data-name="Path 355" d="M445.214,227.564a34.5,34.5,0,0,0-4.127-5.828c-1.92-1.924-4.525-7.41-3.729-13.747a11.211,11.211,0,0,1,8.315-9.562c2.658-.736,12.636-.7,15.973.943s1.622,14.332,1.622,14.332l-5.317,9.787Z" transform="translate(-355.704 -161.063)" fill="#13375b"/>
      <path id="Path_356" data-name="Path 356" d="M743.888,850.765s-.063-.047-.186-.125a9.676,9.676,0,0,0-3.479-1.611,15.063,15.063,0,0,0-3.093.076l2.533,2.864Z" transform="translate(-599.71 -690.712)" fill="#f7a491"/>
      <path id="Path_357" data-name="Path 357" d="M443.637,1244.3l-1.327,7.694,8.762-1.546s5.841-6.3,13.475-14.763c-3.462-2.3-7.112-4.391-10.772-6.506C448.009,1238.026,443.637,1244.3,443.637,1244.3Z" transform="translate(-359.852 -1000.03)" fill="#f7a491"/>
      <path id="Path_358" data-name="Path 358" d="M416.519,1311.51s-3.915-1.931-4.756-3.035-1.014-3.516-2.66-3.741-8.441,4.1-9.219,5.673c-.817,1.659-1.133,3.98-.276,5.11s16.849,15.954,20.32,17.779,7.084-.3,5.205-4.3S418.95,1311.843,416.519,1311.51Z" transform="translate(-324.697 -1061.491)" fill="#50bfa5"/>
      <path id="Path_359" data-name="Path 359" d="M413.93,779.62s70.443,22.483,69.992,31.763c-1.059,21.683-51.08,70.219-51.08,70.219l-10.389-6.92,30.693-54.928s-31.662-8.949-34.185-11.469S413.93,779.62,413.93,779.62Z" transform="translate(-336.763 -634.279)" fill="#13375b"/>
      <path id="Path_360" data-name="Path 360" d="M776.552,1188.632a2.252,2.252,0,0,1-2.252-2.252,54.251,54.251,0,0,1,89.279-41.426,2.252,2.252,0,0,1-2.9,3.444,49.75,49.75,0,0,0-81.876,37.986A2.252,2.252,0,0,1,776.552,1188.632Z" transform="translate(-629.951 -921.073)" fill="#37394e"/>
      <path id="Path_361" data-name="Path 361" d="M48.034,1261.538A48.034,48.034,0,1,1,96.069,1213.5,48.088,48.088,0,0,1,48.034,1261.538Zm0-90.064a42.03,42.03,0,1,0,42.03,42.03A42.076,42.076,0,0,0,48.034,1171.475Z" transform="translate(0 -948.197)" fill="#355389"/>
      <path id="Path_362" data-name="Path 362" d="M94.945,1297.691a37.28,37.28,0,1,1,37.285-37.276A37.325,37.325,0,0,1,94.945,1297.691Zm0-73.051a35.772,35.772,0,1,0,35.775,35.769A35.814,35.814,0,0,0,94.945,1224.64Z" transform="translate(-46.911 -995.108)" fill="#86b1f2"/>
      <path id="Path_363" data-name="Path 363" d="M115.422,1388.988A32.63,32.63,0,0,1,82.829,1356.4a32.223,32.223,0,0,1,3.594-14.894.75.75,0,0,1,1.335.686A30.732,30.732,0,0,0,84.33,1356.4a31.094,31.094,0,0,0,44.019,28.279.751.751,0,0,1,.624,1.367A32.353,32.353,0,0,1,115.422,1388.988Z" transform="translate(-67.388 -1091.08)" fill="#86b1f2"/>
      <path id="Path_364" data-name="Path 364" d="M277.647,1259.917a.747.747,0,0,1-.548-.237,31.21,31.21,0,0,0-22.694-9.84.746.746,0,1,1,0-1.491,32.715,32.715,0,0,1,23.79,10.313.742.742,0,0,1-.548,1.255Z" transform="translate(-206.371 -1015.626)" fill="#86b1f2"/>
      <path id="Path_365" data-name="Path 365" d="M154.536,1148.948a2.237,2.237,0,0,1-1.454-.531,49.764,49.764,0,0,0-59.828-3.345,2.252,2.252,0,1,1-2.511-3.729,54.267,54.267,0,0,1,65.249,3.645,2.252,2.252,0,0,1-1.456,3.969Z" transform="translate(-72.921 -921.096)" fill="#37394e"/>
      <path id="Path_366" data-name="Path 366" d="M410.1,1078.186a1.877,1.877,0,0,1-1.639-.962L367.058,1003.2a1.876,1.876,0,0,1,3.276-1.831l42.9,73.824c.507.9-1.318,2.254-2.222,2.759A1.87,1.87,0,0,1,410.1,1078.186Z" transform="translate(-298.435 -813.904)" fill="#8b68ff"/>
      <path id="Path_367" data-name="Path 367" d="M362.291,1030.817h0a1.876,1.876,0,0,0-2.213-1.954l-78.817,14.541c-36.336,62.609-34.409,58.431-33.719,59.79,1,1.937-.858.573,68.838,1.782C362.947,1030.193,362.233,1031.772,362.291,1030.817ZM314.313,1101.2l-61.867-.7,31.189-53.711,72.939-13.467Z" transform="translate(-201.179 -837.032)" fill="#8b68ff"/>
      <path id="Path_368" data-name="Path 368" d="M255.076,1377.868a.578.578,0,0,1-.028-1.156l66.134-3.065a.579.579,0,0,1,.054,1.156l-66.134,3.065Z" transform="translate(-207.042 -1117.564)" fill="#184655"/>
      <path id="Path_369" data-name="Path 369" d="M322.207,1454.188h-.028l-67.07-3.065a.579.579,0,0,1,.052-1.156l67.072,3.063a.58.58,0,0,1-.026,1.158Z" transform="translate(-207.101 -1179.656)" fill="#184655"/>
      <path id="Path_370" data-name="Path 370" d="M554.58,1376.081a10.781,10.781,0,1,0,10.781-10.781A10.781,10.781,0,0,0,554.58,1376.081Z" transform="translate(-451.192 -1110.774)" fill="#8191aa"/>
      <path id="Path_371" data-name="Path 371" d="M624.532,1449.491a.746.746,0,0,1-.64-.356l-15.382-24.861a.751.751,0,0,1,1.277-.789l15.386,24.86a.745.745,0,0,1-.242,1.034A.768.768,0,0,1,624.532,1449.491Z" transform="translate(-494.978 -1157.822)" fill="#86b1f2"/>
      <path id="Path_372" data-name="Path 372" d="M644.165,1551.382a1.5,1.5,0,0,1-.218-2.983l16.514-2.444a1.5,1.5,0,0,1,.438,2.972l-16.512,2.435A1.468,1.468,0,0,1,644.165,1551.382Z" transform="translate(-522.869 -1257.742)" fill="#184655"/>
      <path id="Path_373" data-name="Path 373" d="M296.1,991.35h14.64a1.967,1.967,0,0,1,1.967,1.967v2.353a1.969,1.969,0,0,1-1.967,1.967H292.259a1.958,1.958,0,0,1-1.782-2.8A6.286,6.286,0,0,1,296.1,991.35Z" transform="translate(-236.162 -806.538)" fill="#184655"/>
      <path id="Path_374" data-name="Path 374" d="M608.133,1404.766l5.328,5.708,4.066-7.916s-1.491-8.46-3.613-19.659c-3.928,1.365-7.8,3.013-11.694,4.646C605.779,1397.49,608.133,1404.766,608.133,1404.766Z" transform="translate(-489.951 -1125.093)" fill="#f7a491"/>
      <path id="Path_375" data-name="Path 375" d="M635.356,1482.506s-3.915,1.954-5.293,1.954-3.415-1.316-4.59-.142-1.84,9.2-1.053,10.772c.828,1.655,2.485,3.311,3.9,3.311s26.845-5.084,30.387-6.739,1.842-5.308-2.483-6.227S637.091,1480.772,635.356,1482.506Z" transform="translate(-507.735 -1205.761)" fill="#50bfa5"/>
      <path id="Path_376" data-name="Path 376" d="M326.469,758.559,305.029,751s-15.921,14.187-13.005,23.646S331.5,832,331.5,832s15.643,38.937,20.82,53.4c3.9-1.635,9.422-3.84,13.352-5.205-3.684-19.388-12.448-61.1-12.448-61.1L328.9,769.654Z" transform="translate(-237.293 -610.995)" fill="#355389"/>
      <path id="Path_377" data-name="Path 377" d="M587.457,14.915c.621,4.871,1.389,4.562,1.452,5.19.075.746-4.381,9.683-4.381,9.683s-12.962,26.435-13.712,27.837L547.76,77.071l5.966,14.355S578.28,69.6,579.372,68.233,593.965,29.083,595.257,25.8c0,0,2.942-3.356,4.722-5.528s2.541-5.033,2.953-5.72a25.92,25.92,0,0,0,2.075-5.807c.667-2.869-1.24-.442-1.24-.442s-2.162,5.1-2.522,4.864c-.278-.186,1.063-2.9,1.833-6.07.2-.813.392-1.618.559-2.358.449-1.943-.58-2.765-1.365-.8a20.566,20.566,0,0,0-.9,2.726,17.11,17.11,0,0,1-1,2.506,22.652,22.652,0,0,1-1.04,2.576c-.047-.058-.384.144-.2-.727.222-1.046,1.169-3.169,1.38-4.735.119-.886.477-2.726.477-2.726a18.013,18.013,0,0,0-.125-2.932c-.882-.3-1.447,1.659-1.456,2.884a13.868,13.868,0,0,0-.71,2.727s-1.512,3.794-2.034,3.591c-.224-.088.434-2.524.716-5.013.261-2.31.159-4.683-.278-4.8-.746-.2-1.3,2.342-1.3,2.342s-.3,1.8-.44,2.386c-.168.692-.824,2.726-.824,2.726s-2.6,6.976-3.08,6.739-1.462-1.352-1.445-1.84.5-1.37.516-1.864a1.189,1.189,0,0,0-.951-1.189c-.578-.058-1.536,2.28-1.536,2.28A8.246,8.246,0,0,0,587.457,14.915Z" transform="translate(-445.644 -0.001)" fill="#f8a492"/>
      <path id="Path_378" data-name="Path 378" d="M500.8,352.99c-.906-.218-25.223,14.644-25.523,20.425s8.033,14.961,14.99,11.247,21.159-18.643,21.159-18.643S503.73,353.687,500.8,352.99Z" transform="translate(-386.666 -287.182)" fill="#b94838"/>
      <path id="Path_379" data-name="Path 379" d="M346.635,406.52c.227.227,6.568,14.079,5.36,24.036-2.205,18.193-11.48,47.872-14.821,48.881-26.778,8.07-36.584,2.043-36.584,2.043s10.615-55.228,16.745-67.738c2.55-5.2,5.673-9.636,11.579-10.559C330.263,402.965,341.43,401.317,346.635,406.52Z" transform="translate(-244.552 -327.679)" fill="#f47458"/>
      <path id="Path_380" data-name="Path 380" d="M486.938,321.341l1.189,10.919s.276,3.044-1.243,4.249c-2.61,2.071-12.364-8.389-12.364-8.389l1.066-17.179Z" transform="translate(-386.057 -252.973)" fill="#f7a491"/>
      <path id="Path_381" data-name="Path 381" d="M478.51,316.066A16.852,16.852,0,0,0,490.794,326.9l-.61-5.593L478.833,310.9Z" transform="translate(-389.304 -252.941)" fill="#f47458"/>
      <path id="Path_382" data-name="Path 382" d="M474.441,215.323a8.776,8.776,0,0,1,11.823,6.417,66.239,66.239,0,0,1,1.132,8.389c.52,7.658-3.076,15.315-6.557,15.486s-13.346-4.31-14.235-15.173C466.056,223.731,469.106,217.461,474.441,215.323Z" transform="translate(-379.566 -174.673)" fill="#f7a491"/>
      <path id="Path_383" data-name="Path 383" d="M459,290.225a2.557,2.557,0,1,1-2.655-2.936A2.827,2.827,0,0,1,459,290.225Z" transform="translate(-369.351 -233.729)" fill="#f7a491"/>
      <path id="Path_384" data-name="Path 384" d="M222.676,1396.153a8.016,8.016,0,1,1,8.016-8.016A8.016,8.016,0,0,1,222.676,1396.153Z" transform="translate(-174.642 -1122.831)" fill="#184655"/>
      <path id="Path_385" data-name="Path 385" d="M220.87,1393.2a6.859,6.859,0,1,0,6.859-6.858A6.859,6.859,0,0,0,220.87,1393.2Z" transform="translate(-179.694 -1127.892)" fill="#466eb6"/>
      <path id="Path_386" data-name="Path 386" d="M251.121,1414.661a1.941,1.941,0,1,1-1.939-1.941A1.941,1.941,0,0,1,251.121,1414.661Z" transform="translate(-201.148 -1149.354)" fill="#5bcff7"/>
      <g id="Group_442" data-name="Group 442" transform="translate(165.214 250.014)" opacity="0.57">
        <path id="Path_387" data-name="Path 387" d="M918.812,1388.988a32.63,32.63,0,0,1-32.593-32.593,32.224,32.224,0,0,1,3.594-14.893.75.75,0,1,1,1.335.686,30.73,30.73,0,0,0-3.428,14.207,31.1,31.1,0,0,0,44.015,28.286.751.751,0,0,1,.625,1.366A32.36,32.36,0,0,1,918.812,1388.988Z" transform="translate(-886.219 -1341.094)" fill="#86b1f2"/>
      </g>
      <path id="Path_388" data-name="Path 388" d="M851.424,1261.538a48.034,48.034,0,1,1,48.034-48.034A48.088,48.088,0,0,1,851.424,1261.538Zm0-90.064a42.03,42.03,0,1,0,42.03,42.03A42.077,42.077,0,0,0,851.424,1171.475Z" transform="translate(-653.618 -948.197)" fill="#355389"/>
      <g id="Group_443" data-name="Group 443" transform="translate(160.521 228.022)" opacity="0.57">
        <path id="Path_389" data-name="Path 389" d="M898.335,1297.691a37.28,37.28,0,1,1,37.285-37.276A37.325,37.325,0,0,1,898.335,1297.691Zm0-73.051a35.775,35.775,0,1,0,35.775,35.775A35.814,35.814,0,0,0,898.335,1224.64Z" transform="translate(-861.05 -1223.13)" fill="#86b1f2"/>
      </g>
      <path id="Path_390" data-name="Path 390" d="M768.688,961.726a1.874,1.874,0,0,1-1.646-.975L716.521,868.8a5.983,5.983,0,0,1-.746-2.88v-5.966c0-1.171-.266-2.377-.606-2.569a4.256,4.256,0,0,0-2.763.66l-8.8,5.28a1.877,1.877,0,1,1-1.931-3.218l8.8-5.28c1.864-1.119,4.944-1.609,6.844-.535s2.209,3.479,2.209,5.662v5.966a2.216,2.216,0,0,0,.274,1.068l50.521,91.956a1.877,1.877,0,0,1-1.642,2.781Z" transform="translate(-570.084 -694.542)" fill="#8b68ff"/>
      <path id="Path_391" data-name="Path 391" d="M486.714,615.258c-1.182-2.474-4.3-14.258-4.3-14.258l-19.575,1.245s9.278,20.367,11.2,24.327c5.406,4.847,27.377,19.647,29.427,21.3a13.719,13.719,0,0,1,3.1,3.309c1.527,2.714,1.98,4.016,3.393,6.674,1.611,3.027,11.107-1.652,11.107-4.318,0-1.836-3.728-4.836-6.685-7.271C513.05,645.164,487.778,617.482,486.714,615.258Z" transform="translate(-376.555 -488.959)" fill="#f7a491"/>
      <path id="Path_392" data-name="Path 392" d="M408.582,408.009c-4.541,2.534-7.142,6.64-2.942,20.593a143.674,143.674,0,0,0,9.508,23.874s14.375-.595,21.495-7.808C436.643,444.667,424.2,399.3,408.582,408.009Z" transform="translate(-328.295 -331.041)" fill="#b75742"/>
      <path id="Path_393" data-name="Path 393" d="M1024.26,1393.2a6.859,6.859,0,1,0,6.859-6.858A6.859,6.859,0,0,0,1024.26,1393.2Z" transform="translate(-833.312 -1127.892)" fill="#466eb6"/>
      <path id="Path_394" data-name="Path 394" d="M1054.511,1414.661a1.941,1.941,0,1,1-1.939-1.941A1.941,1.941,0,0,1,1054.511,1414.661Z" transform="translate(-854.766 -1149.354)" fill="#5bcff7"/>
      <path id="Path_395" data-name="Path 395" d="M738.168,845.391a6.878,6.878,0,0,0-5.261-2.008c-3.2.254-1.641,2.744-1.641,2.856s5.431,2.716,5.431,2.716-1.018-2.647-.282-3.083A4.364,4.364,0,0,1,738.168,845.391Z" transform="translate(-594.632 -686.14)" fill="#f7a491"/>
      <path id="Path_396" data-name="Path 396" d="M464.4,198.021a27.261,27.261,0,0,1-.421-7.142c.339-3.507,3.242-8.43,6.806-9.165s11.877.621,12.951-1.642,1.076-2.036,1.443-2.39c.837-.805,5.822,2.541,5.593,8.482s-5.47,5.733-6.488,5.9-10.3-3.729-13.124-3.564S464.4,198.021,464.4,198.021Z" transform="translate(-377.411 -144.461)" fill="#13375b"/>
    </g>
  </g>
</svg>
