<svg xmlns="http://www.w3.org/2000/svg" width="373.29" height="234.129" viewBox="0 0 373.29 234.129">
  <g id="Layer_2" data-name="Layer 2" transform="translate(0 -853.691)">
    <g id="Layer_1" data-name="Layer 1" transform="translate(0 853.691)">
      <g id="Group_444" data-name="Group 444" transform="translate(346.663 322.377) rotate(180)">
        <path id="Path_397" data-name="Path 397" d="M632.9,1463.158a1.132,1.132,0,0,1-.971-.541l-23.356-37.75a1.139,1.139,0,1,1,1.939-1.2l23.362,37.748a1.132,1.132,0,0,1-.368,1.571A1.169,1.169,0,0,1,632.9,1463.158Z" transform="translate(-436.178 -1261.937)" fill="#8191aa"/>
        <path id="Path_398" data-name="Path 398" d="M644.934,1554.2a2.279,2.279,0,0,1-.331-4.529l25.074-3.711a2.282,2.282,0,0,1,.665,4.512l-25.072,3.7A2.275,2.275,0,0,1,644.934,1554.2Z" transform="translate(-460.756 -1349.988)" fill="#184655"/>
      </g>
      <path id="Path_360" data-name="Path 360" d="M777.719,1217.923a3.419,3.419,0,0,1-3.42-3.419,82.376,82.376,0,0,1,135.564-62.9,3.419,3.419,0,1,1-4.408,5.229,75.542,75.542,0,0,0-124.322,57.679A3.419,3.419,0,0,1,777.719,1217.923Z" transform="translate(-555.117 -1053.312)" fill="#37394e"/>
      <path id="Path_361" data-name="Path 361" d="M72.936,1311.343a72.936,72.936,0,1,1,72.936-72.936A73.019,73.019,0,0,1,72.936,1311.343Zm0-136.755a63.819,63.819,0,1,0,63.819,63.819A63.889,63.889,0,0,0,72.936,1174.588Z" transform="translate(0 -1077.214)" fill="#355389"/>
      <path id="Path_362" data-name="Path 362" d="M114.274,1336.345a56.607,56.607,0,1,1,56.614-56.6A56.676,56.676,0,0,1,114.274,1336.345Zm0-110.922a54.317,54.317,0,1,0,54.322,54.313A54.381,54.381,0,0,0,114.274,1225.423Z" transform="translate(-41.338 -1118.552)" fill="#86b1f2"/>
      <path id="Path_363" data-name="Path 363" d="M132.319,1413.817a49.546,49.546,0,0,1-49.489-49.49,48.929,48.929,0,0,1,5.458-22.615,1.139,1.139,0,0,1,2.027,1.042,46.664,46.664,0,0,0-5.206,21.573,47.215,47.215,0,0,0,66.839,42.939,1.141,1.141,0,1,1,.948,2.075A49.123,49.123,0,0,1,132.319,1413.817Z" transform="translate(-59.382 -1203.124)" fill="#86b1f2"/>
      <path id="Path_364" data-name="Path 364" d="M290.083,1265.915a1.133,1.133,0,0,1-.832-.359,47.39,47.39,0,0,0-34.458-14.941,1.132,1.132,0,1,1,0-2.265,49.676,49.676,0,0,1,36.123,15.66,1.126,1.126,0,0,1-.832,1.905Z" transform="translate(-181.856 -1136.633)" fill="#86b1f2"/>
      <path id="Path_365" data-name="Path 365" d="M188.185,1157.653a3.4,3.4,0,0,1-2.208-.807,75.563,75.563,0,0,0-90.843-5.078,3.419,3.419,0,1,1-3.813-5.661,82.4,82.4,0,0,1,99.075,5.534,3.419,3.419,0,0,1-2.211,6.027Z" transform="translate(-64.258 -1053.332)" fill="#37394e"/>
      <path id="Path_366" data-name="Path 366" d="M432.543,1118.509a2.85,2.85,0,0,1-2.488-1.46l-62.873-112.406a2.849,2.849,0,0,1,4.974-2.78l65.138,112.1c.77,1.373-2,3.422-3.374,4.189A2.83,2.83,0,0,1,432.543,1118.509Z" transform="translate(-262.983 -958.874)" fill="#8b68ff"/>
      <path id="Path_367" data-name="Path 367" d="M421.917,1031.847h0a2.848,2.848,0,0,0-3.36-2.967l-119.677,22.08c-55.174,95.067-52.247,88.723-51.2,90.787,1.514,2.941-1.3.869,104.524,2.706C422.913,1030.9,421.829,1033.3,421.917,1031.847Zm-72.851,106.865-93.94-1.059,47.358-81.556,110.752-20.449Z" transform="translate(-177.28 -979.255)" fill="#8b68ff"/>
      <path id="Path_368" data-name="Path 368" d="M255.383,1380.056a.878.878,0,1,1-.042-1.755l100.42-4.654a.878.878,0,1,1,.082,1.755l-100.42,4.654Z" transform="translate(-182.447 -1226.462)" fill="#184655"/>
      <path id="Path_369" data-name="Path 369" d="M357.279,1456.376h-.042L255.4,1451.723a.878.878,0,0,1,.079-1.755l101.844,4.651a.88.88,0,0,1-.04,1.758Z" transform="translate(-182.499 -1281.178)" fill="#184655"/>
      <path id="Path_370" data-name="Path 370" d="M554.58,1381.67a16.37,16.37,0,1,0,16.37-16.37A16.37,16.37,0,0,0,554.58,1381.67Z" transform="translate(-397.594 -1220.478)" fill="#8191aa"/>
      <path id="Path_371" data-name="Path 371" d="M632.9,1463.158a1.132,1.132,0,0,1-.971-.541l-23.356-37.75a1.139,1.139,0,1,1,1.939-1.2l23.362,37.748a1.132,1.132,0,0,1-.368,1.571A1.169,1.169,0,0,1,632.9,1463.158Z" transform="translate(-436.178 -1261.937)" fill="#8191aa"/>
      <path id="Path_372" data-name="Path 372" d="M644.934,1554.2a2.279,2.279,0,0,1-.331-4.529l25.074-3.711a2.282,2.282,0,0,1,.665,4.512l-25.072,3.7A2.275,2.275,0,0,1,644.934,1554.2Z" transform="translate(-460.756 -1349.988)" fill="#184655"/>
      <path id="Path_373" data-name="Path 373" d="M299.124,991.35h22.23a2.986,2.986,0,0,1,2.986,2.986v3.572a2.989,2.989,0,0,1-2.986,2.986H293.287a2.973,2.973,0,0,1-2.706-4.246A9.545,9.545,0,0,1,299.124,991.35Z" transform="translate(-208.108 -952.383)" fill="#184655"/>
      <path id="Path_384" data-name="Path 384" d="M226.832,1404.464A12.172,12.172,0,1,1,239,1392.292,12.172,12.172,0,0,1,226.832,1404.464Z" transform="translate(-153.896 -1231.103)" fill="#184655"/>
      <path id="Path_385" data-name="Path 385" d="M220.87,1396.754a10.414,10.414,0,1,0,10.414-10.414A10.414,10.414,0,0,0,220.87,1396.754Z" transform="translate(-158.348 -1235.562)" fill="#466eb6"/>
      <path id="Path_386" data-name="Path 386" d="M253.134,1415.667a2.947,2.947,0,1,1-2.944-2.947A2.947,2.947,0,0,1,253.134,1415.667Z" transform="translate(-177.253 -1254.475)" fill="#5bcff7"/>
      <g id="Group_442" data-name="Group 442" transform="translate(250.864 137.97)" opacity="0.57">
        <path id="Path_387" data-name="Path 387" d="M935.709,1413.817a49.546,49.546,0,0,1-49.49-49.49,48.929,48.929,0,0,1,5.458-22.615,1.139,1.139,0,1,1,2.027,1.042,46.665,46.665,0,0,0-5.206,21.573,47.231,47.231,0,0,0,66.833,42.951,1.141,1.141,0,1,1,.948,2.075A49.131,49.131,0,0,1,935.709,1413.817Z" transform="translate(-886.219 -1341.094)" fill="#86b1f2"/>
      </g>
      <path id="Path_388" data-name="Path 388" d="M876.326,1311.343a72.936,72.936,0,1,1,72.936-72.936A73.019,73.019,0,0,1,876.326,1311.343Zm0-136.755a63.819,63.819,0,1,0,63.819,63.819A63.891,63.891,0,0,0,876.326,1174.588Z" transform="translate(-575.973 -1077.214)" fill="#355389"/>
      <g id="Group_443" data-name="Group 443" transform="translate(243.739 104.578)" opacity="0.57">
        <path id="Path_389" data-name="Path 389" d="M917.664,1336.345a56.607,56.607,0,1,1,56.614-56.6A56.676,56.676,0,0,1,917.664,1336.345Zm0-110.922a54.322,54.322,0,1,0,54.322,54.322A54.381,54.381,0,0,0,917.664,1225.423Z" transform="translate(-861.05 -1223.13)" fill="#86b1f2"/>
      </g>
      <path id="Path_390" data-name="Path 390" d="M803.927,1017.734a2.845,2.845,0,0,1-2.5-1.48L724.715,876.628a9.083,9.083,0,0,1-1.132-4.373V863.2c0-1.778-.4-3.609-.92-3.9s-2.672.085-4.2,1l-13.361,8.017a2.851,2.851,0,1,1-2.933-4.886l13.361-8.017c2.831-1.7,7.507-2.443,10.392-.812s3.354,5.282,3.354,8.6v9.058a3.366,3.366,0,0,0,.416,1.622L806.41,1013.5a2.851,2.851,0,0,1-2.494,4.223Z" transform="translate(-502.362 -853.691)" fill="#8b68ff"/>
      <path id="Path_393" data-name="Path 393" d="M1024.26,1396.754a10.414,10.414,0,1,0,10.414-10.414,10.414,10.414,0,0,0-10.414,10.414Z" transform="translate(-734.321 -1235.562)" fill="#466eb6"/>
      <path id="Path_394" data-name="Path 394" d="M1056.524,1415.667a2.947,2.947,0,1,1-2.944-2.947A2.947,2.947,0,0,1,1056.524,1415.667Z" transform="translate(-753.226 -1254.475)" fill="#5bcff7"/>
    </g>
  </g>
</svg>
