<svg xmlns="http://www.w3.org/2000/svg" width="171" height="86" viewBox="0 0 171 86">
  <g id="Groupe_3" data-name="Groupe 3" transform="translate(244 -753.106)">
    <g id="logo_branding" data-name="logo branding" transform="translate(-243 753)">
      <path id="velo-de-route_1_" data-name="velo-de-route (1)" d="M77.483,25.9a19.19,19.19,0,0,0-3.489.322l-5.165-14.24a10.245,10.245,0,0,1,6.385.051c1.084,1.088.123,4.481-.607,5.959a3.229,3.229,0,0,0,5.778,2.885c.433-.871,4.132-8.672-.607-13.408C75.627,3.32,66.989,5.6,63.939,6.577L37.771,9.483,36.8,6.522h5.174a3.228,3.228,0,1,0,0-6.456H32.294a3.227,3.227,0,0,0-3.06,4.248l2.8,8.415-7,14.006-2.954,5.917c1.812,2.942,5.752,2.934,5.752,2.934L38.459,48.5h9.974a3.3,3.3,0,0,0,.855-.123c.094-.026.177-.071.268-.1a3.113,3.113,0,0,0,.51-.236c.1-.058.184-.126.277-.194a2.707,2.707,0,0,0,.617-.584c.045-.058.1-.1.145-.165a2.569,2.569,0,0,0,.152-.3c.032-.061.084-.113.113-.177L64.249,18.295l3.693,10.147a19.338,19.338,0,1,0,9.541-2.54ZM35.2,20.864l2.121,5.3,6.346,15.88H38.459L30.8,29.66ZM22.082,32.652,16.494,43.826A3.228,3.228,0,0,0,19.383,48.5h3.228a3.228,3.228,0,0,0,1.739-5.949l3.483-6.962Zm26.541,4.4-2.843-7.1L40.1,15.748l19.185-2.134ZM77.483,58.18a12.911,12.911,0,0,1-7.3-23.543l4.27,11.736a3.228,3.228,0,1,0,6.062-2.208L76.266,32.481c.407-.039.8-.123,1.218-.123a12.911,12.911,0,0,1,0,25.822Zm0,0" transform="translate(42.048 4.516)" fill="#805cf6"/>
      <text id="s" transform="translate(18 68.106)" fill="#805cf6" font-size="70" font-family="Montserrat-SemiBold, Montserrat" font-weight="600"><tspan x="-18.025" y="0">s</tspan></text>
      <text id="p" transform="translate(60 68.106)" fill="#805cf6" font-size="70" font-family="Montserrat-SemiBold, Montserrat" font-weight="600"><tspan x="-24.01" y="0">p</tspan></text>
      <text id="t" transform="translate(155 68.106)" fill="#805cf6" font-size="70" font-family="Montserrat-SemiBold, Montserrat" font-weight="600"><tspan x="-14.84" y="0">t</tspan></text>
    </g>
  </g>
</svg>
