<svg xmlns="http://www.w3.org/2000/svg" width="1022.792" height="222.572" viewBox="0 0 1022.792 222.572">
  <g id="Group_504" data-name="Group 504" transform="translate(-86 -68.928)">
    <g id="forms">
      <path id="Polygon_2" data-name="Polygon 2" d="M8.239,3.27a2,2,0,0,1,3.522,0l1.455,2.7a2,2,0,0,0,.813.813l2.7,1.455a2,2,0,0,1,0,3.522l-2.7,1.455a2,2,0,0,0-.813.813l-1.455,2.7a2,2,0,0,1-3.522,0l-1.455-2.7a2,2,0,0,0-.813-.813l-2.7-1.455a2,2,0,0,1,0-3.522l2.7-1.455a2,2,0,0,0,.813-.813Z" transform="translate(250.5 141.5)" fill="#906eff"/>
      <g id="Ellipse_21" data-name="Ellipse 21" transform="translate(286 232)" fill="none" stroke="#8b68ff" stroke-width="3">
        <circle cx="5.5" cy="5.5" r="5.5" stroke="none"/>
        <circle cx="5.5" cy="5.5" r="4" fill="none"/>
      </g>
      <circle id="Ellipse_22" data-name="Ellipse 22" cx="3" cy="3" r="3" transform="translate(86 142)" fill="#8b68ff"/>
      <path id="Polygon_3" data-name="Polygon 3" d="M8.239,3.27a2,2,0,0,1,3.522,0l1.455,2.7a2,2,0,0,0,.813.813l2.7,1.455a2,2,0,0,1,0,3.522l-2.7,1.455a2,2,0,0,0-.813.813l-1.455,2.7a2,2,0,0,1-3.522,0l-1.455-2.7a2,2,0,0,0-.813-.813l-2.7-1.455a2,2,0,0,1,0-3.522l2.7-1.455a2,2,0,0,0,.813-.813Z" transform="translate(121.5 271.5)" fill="#fff"/>
    </g>
    <g id="forms-2" data-name="forms" transform="translate(740.12)">
      <path id="Polygon_2-2" data-name="Polygon 2" d="M8.239,3.27a2,2,0,0,1,3.522,0l1.455,2.7a2,2,0,0,0,.813.813l2.7,1.455a2,2,0,0,1,0,3.522l-2.7,1.455a2,2,0,0,0-.813.813l-1.455,2.7a2,2,0,0,1-3.522,0l-1.455-2.7a2,2,0,0,0-.813-.813l-2.7-1.455a2,2,0,0,1,0-3.522l2.7-1.455a2,2,0,0,0,.813-.813Z" transform="translate(281.5 142)" fill="#906eff"/>
      <g id="Ellipse_21-2" data-name="Ellipse 21" transform="translate(276 266)" fill="none" stroke="#8b68ff" stroke-width="3">
        <circle cx="5.5" cy="5.5" r="5.5" stroke="none"/>
        <circle cx="5.5" cy="5.5" r="4" fill="none"/>
      </g>
      <circle id="Ellipse_22-2" data-name="Ellipse 22" cx="3" cy="3" r="3" transform="translate(81 149)" fill="#8b68ff"/>
      <path id="Polygon_3-2" data-name="Polygon 3" d="M8.239,3.27a2,2,0,0,1,3.522,0l1.455,2.7a2,2,0,0,0,.813.813l2.7,1.455a2,2,0,0,1,0,3.522l-2.7,1.455a2,2,0,0,0-.813.813l-1.455,2.7a2,2,0,0,1-3.522,0l-1.455-2.7a2,2,0,0,0-.813-.813l-2.7-1.455a2,2,0,0,1,0-3.522l2.7-1.455a2,2,0,0,0,.813-.813Z" transform="translate(100.5 225.5)" fill="#8b68ff"/>
    </g>
    <g id="Group_502" data-name="Group 502">
      <g id="Group_500" data-name="Group 500" transform="translate(370.087 -3.079)">
        <path id="Path_410" data-name="Path 410" d="M55.117,64.522A15.984,15.984,0,0,0,41.377,88.657H38.033a3.931,3.931,0,0,0-3.913,3.913h0a3.931,3.931,0,0,0,3.913,3.913H155.377a3.922,3.922,0,0,0,3.949-3.913h0a3.922,3.922,0,0,0-3.913-3.913h-5.229a15.984,15.984,0,0,0-20.735-22.539,8.33,8.33,0,0,0-13.46-5.608,27.587,27.587,0,0,0-53.741,5.635A15.894,15.894,0,0,0,55.117,64.522Z" transform="translate(365 59.896)" fill="#8b68ff" fill-rule="evenodd" opacity="0.71"/>
        <path id="Path_411" data-name="Path 411" d="M149.048,103.09h.135a4.76,4.76,0,0,1,4.742,4.742h0a4.76,4.76,0,0,1-4.742,4.751h-.135a4.76,4.76,0,0,1-4.742-4.751h0A4.76,4.76,0,0,1,149.048,103.09Zm-100.2,0h4.508a2.506,2.506,0,0,0,2.5-2.5,2.326,2.326,0,0,0-1.6-2.362h-.9a2.786,2.786,0,0,1-2.777-2.777h0a2.777,2.777,0,0,1,2.777-2.777H55.73A11.359,11.359,0,0,1,70.515,76.7a19.59,19.59,0,0,1,38.162-4,5.851,5.851,0,0,1,3.669-1.28,5.914,5.914,0,0,1,5.878,5.265A11.35,11.35,0,0,1,132.9,92.678h3.714a2.786,2.786,0,0,1,2.777,2.777h0a2.786,2.786,0,0,1-2.777,2.777H126.05a2.5,2.5,0,0,0,.793,4.859h6.906a4.76,4.76,0,0,1,4.742,4.742h0a4.76,4.76,0,0,1-4.742,4.751h-84.9a4.76,4.76,0,0,1-4.751-4.751h0A4.76,4.76,0,0,1,48.851,103.09Z" transform="translate(364.018 58.147)" fill="#ddd4ff" fill-rule="evenodd"/>
      </g>
      <g id="Group_501" data-name="Group 501" transform="translate(408.261 26.051)">
        <path id="Path_412" data-name="Path 412" d="M313.78,250.67a11.748,11.748,0,0,1,3.979.689,20.836,20.836,0,0,1-.157-2.538,20.575,20.575,0,0,1,36.38-13.181,8.615,8.615,0,0,1,14.6,6.187v.2a8.78,8.78,0,0,1,4.934,3.524,20.12,20.12,0,0,1,38.377,6.6,11.223,11.223,0,0,1,7.127,14.215h4.832a3.838,3.838,0,0,1,3.83,3.83h0a3.838,3.838,0,0,1-3.83,3.83H293.472a3.838,3.838,0,0,1-3.822-3.83h0a3.838,3.838,0,0,1,3.822-3.83h9.344A11.693,11.693,0,0,1,313.78,250.7Z" transform="translate(272.85 -182.31)" fill="#ac93ff" fill-rule="evenodd"/>
        <path id="Path_413" data-name="Path 413" d="M408.662,283.3h-3.916a2.17,2.17,0,0,1-2.162-2.162,2.028,2.028,0,0,1,2.216-2.162h3.282a8.286,8.286,0,0,0-5.287-10.354,14.818,14.818,0,0,0-28.234-4.864,6.477,6.477,0,0,0-3.673-2.561v-.141a6.336,6.336,0,0,0-10.73-4.558,15.155,15.155,0,0,0-26.785,9.7,14.961,14.961,0,0,0,.118,1.88,8.474,8.474,0,0,0-2.929-.517,8.615,8.615,0,0,0-8.114,11.45h18.507a2.162,2.162,0,0,1,0,4.323h-6.015a4.135,4.135,0,0,0-4.12,4.127h0a4.135,4.135,0,0,0,4.12,4.127h73.723a4.135,4.135,0,0,0,4.127-4.127h0a4.135,4.135,0,0,0-4.127-4.127Zm-87.053,0a4.135,4.135,0,0,1,4.127,4.127h0a4.135,4.135,0,0,1-4.127,4.127h-.11a4.127,4.127,0,0,1-4.12-4.127h0a4.127,4.127,0,0,1,4.12-4.127Z" transform="translate(266.838 -187.257)" fill="#ddd4ff" fill-rule="evenodd"/>
      </g>
    </g>
    <g id="Group_447" data-name="Group 447">
      <path id="Path_410-2" data-name="Path 410" d="M55.117,64.522A15.984,15.984,0,0,0,41.377,88.657H38.033a3.931,3.931,0,0,0-3.913,3.913h0a3.931,3.931,0,0,0,3.913,3.913H155.377a3.922,3.922,0,0,0,3.949-3.913h0a3.922,3.922,0,0,0-3.913-3.913h-5.229a15.984,15.984,0,0,0-20.735-22.539,8.33,8.33,0,0,0-13.46-5.608,27.587,27.587,0,0,0-53.741,5.635A15.894,15.894,0,0,0,55.117,64.522Z" transform="translate(365 59.896)" fill="#8b68ff" fill-rule="evenodd" opacity="0.71"/>
      <path id="Path_411-2" data-name="Path 411" d="M149.048,103.09h.135a4.76,4.76,0,0,1,4.742,4.742h0a4.76,4.76,0,0,1-4.742,4.751h-.135a4.76,4.76,0,0,1-4.742-4.751h0A4.76,4.76,0,0,1,149.048,103.09Zm-100.2,0h4.508a2.506,2.506,0,0,0,2.5-2.5,2.326,2.326,0,0,0-1.6-2.362h-.9a2.786,2.786,0,0,1-2.777-2.777h0a2.777,2.777,0,0,1,2.777-2.777H55.73A11.359,11.359,0,0,1,70.515,76.7a19.59,19.59,0,0,1,38.162-4,5.851,5.851,0,0,1,3.669-1.28,5.914,5.914,0,0,1,5.878,5.265A11.35,11.35,0,0,1,132.9,92.678h3.714a2.786,2.786,0,0,1,2.777,2.777h0a2.786,2.786,0,0,1-2.777,2.777H126.05a2.5,2.5,0,0,0,.793,4.859h6.906a4.76,4.76,0,0,1,4.742,4.742h0a4.76,4.76,0,0,1-4.742,4.751h-84.9a4.76,4.76,0,0,1-4.751-4.751h0A4.76,4.76,0,0,1,48.851,103.09Z" transform="translate(364.018 58.147)" fill="#ddd4ff" fill-rule="evenodd"/>
    </g>
    <g id="Group_448" data-name="Group 448" transform="translate(38.174 23)">
      <path id="Path_412-2" data-name="Path 412" d="M313.78,250.67a11.748,11.748,0,0,1,3.979.689,20.836,20.836,0,0,1-.157-2.538,20.575,20.575,0,0,1,36.38-13.181,8.615,8.615,0,0,1,14.6,6.187v.2a8.78,8.78,0,0,1,4.934,3.524,20.12,20.12,0,0,1,38.377,6.6,11.223,11.223,0,0,1,7.127,14.215h4.832a3.838,3.838,0,0,1,3.83,3.83h0a3.838,3.838,0,0,1-3.83,3.83H293.472a3.838,3.838,0,0,1-3.822-3.83h0a3.838,3.838,0,0,1,3.822-3.83h9.344A11.693,11.693,0,0,1,313.78,250.7Z" transform="translate(272.85 -182.31)" fill="#ac93ff" fill-rule="evenodd"/>
      <path id="Path_413-2" data-name="Path 413" d="M408.662,283.3h-3.916a2.17,2.17,0,0,1-2.162-2.162,2.028,2.028,0,0,1,2.216-2.162h3.282a8.286,8.286,0,0,0-5.287-10.354,14.818,14.818,0,0,0-28.234-4.864,6.477,6.477,0,0,0-3.673-2.561v-.141a6.336,6.336,0,0,0-10.73-4.558,15.155,15.155,0,0,0-26.785,9.7,14.961,14.961,0,0,0,.118,1.88,8.474,8.474,0,0,0-2.929-.517,8.615,8.615,0,0,0-8.114,11.45h18.507a2.162,2.162,0,0,1,0,4.323h-6.015a4.135,4.135,0,0,0-4.12,4.127h0a4.135,4.135,0,0,0,4.12,4.127h73.723a4.135,4.135,0,0,0,4.127-4.127h0a4.135,4.135,0,0,0-4.127-4.127Zm-87.053,0a4.135,4.135,0,0,1,4.127,4.127h0a4.135,4.135,0,0,1-4.127,4.127h-.11a4.127,4.127,0,0,1-4.12-4.127h0a4.127,4.127,0,0,1,4.12-4.127Z" transform="translate(266.838 -187.257)" fill="#ddd4ff" fill-rule="evenodd"/>
    </g>
  </g>
</svg>
